<svg width="41" height="41" viewBox="0 0 41 41" fill="none" xmlns="http://www.w3.org/2000/svg">
<path d="M20.1904 1C30.7891 1 39.3817 9.59181 39.3818 20.1904C39.3818 30.7892 30.7892 39.3818 20.1904 39.3818C9.59182 39.3817 1 30.7891 1 20.1904C1.00014 9.59191 9.59191 1.00016 20.1904 1Z" stroke="#E7E7E7" stroke-width="2"/>
<path d="M28.0424 15.529C27.7787 14.5448 27.0034 13.7694 26.0191 13.5057C24.2489 13.0312 20.1903 13.0312 20.1903 13.0312C20.1903 13.0312 16.1318 13.0312 14.3615 13.5057C13.3772 13.7694 12.6019 14.5448 12.3381 15.529C11.8638 17.2993 11.8638 20.1905 11.8638 20.1905C11.8638 20.1905 11.8638 23.0817 12.3381 24.852C12.6019 25.8361 13.3772 26.6115 14.3615 26.8753C16.1318 27.3498 20.1903 27.3498 20.1903 27.3498C20.1903 27.3498 24.2489 27.3498 26.0191 26.8753C27.0034 26.6115 27.7787 25.8361 28.0424 24.852C28.5169 23.0817 28.5169 20.1905 28.5169 20.1905C28.5169 20.1905 28.5169 17.2993 28.0424 15.529Z" fill="#E7E7E7"/>
<path d="M18.8667 23.6343V16.7466L24.8298 20.1904L18.8667 23.6343Z" fill="#121212"/>
</svg>
